<svg width="10" height="8" viewBox="0 0 10 8" fill="none" xmlns="http://www.w3.org/2000/svg">
<path d="M0.384087 6.9675C0.145224 7.19718 0.137776 7.577 0.367452 7.81587C0.597128 8.05473 0.976954 8.06218 1.21582 7.8325L4.81582 4.4325C4.93347 4.31938 4.99995 4.16321 4.99995 4C4.99995 3.83679 4.93347 3.68062 4.81582 3.5675L1.21582 0.167501C0.976954 -0.0621752 0.597128 -0.0547274 0.367452 0.184135C0.137776 0.422999 0.145224 0.802824 0.384087 1.0325L3.53429 4L0.384087 6.9675Z" fill="#626262"/>
<path d="M5.18409 6.9675C4.94522 7.19718 4.93778 7.577 5.16745 7.81587C5.39713 8.05473 5.77695 8.06218 6.01582 7.8325L9.61582 4.4325C9.73347 4.31938 9.79995 4.16321 9.79995 4C9.79995 3.83679 9.73347 3.68062 9.61582 3.5675L6.01582 0.167501C5.77695 -0.0621752 5.39713 -0.0547274 5.16745 0.184135C4.93778 0.422999 4.94522 0.802824 5.18409 1.0325L8.33429 4L5.18409 6.9675Z" fill="#626262"/>
</svg>
