<svg width="10" height="8" viewBox="0 0 10 8" fill="none" xmlns="http://www.w3.org/2000/svg">
<path fill-rule="evenodd" clip-rule="evenodd" d="M9.63255 7.81586C9.40287 8.05473 9.02305 8.06218 8.78418 7.8325L5.18418 4.4325C5.06653 4.31938 5.00005 4.16321 5.00005 4C5.00005 3.83679 5.06653 3.68062 5.18418 3.5675L8.78418 0.1675C9.02304 -0.0621766 9.40287 -0.0547285 9.63255 0.184134C9.86222 0.422997 9.85478 0.802823 9.61591 1.0325L6.46571 4L9.61591 6.9675C9.85478 7.19718 9.86222 7.577 9.63255 7.81586ZM4.83255 7.81586C4.60287 8.05473 4.22305 8.06218 3.98418 7.8325L0.384182 4.4325C0.266534 4.31938 0.200047 4.16321 0.200047 4C0.200047 3.83679 0.266534 3.68062 0.384182 3.5675L3.98418 0.1675C4.22304 -0.0621762 4.60287 -0.0547281 4.83255 0.184134C5.06222 0.422997 5.05478 0.802823 4.81591 1.0325L1.66571 4L4.81591 6.9675C5.05478 7.19718 5.06222 7.577 4.83255 7.81586Z" fill="#626262"/>
</svg>
