<svg width="24" height="25" viewBox="0 0 24 25" fill="none" xmlns="http://www.w3.org/2000/svg">
<path d="M22.501 12.7326C22.501 11.8693 22.4296 11.2393 22.2748 10.5859H12.2153V14.4826H18.12C18.001 15.4509 17.3582 16.9093 15.9296 17.8892L15.9096 18.0197L19.0902 20.4344L19.3106 20.4559C21.3343 18.6242 22.501 15.9292 22.501 12.7326Z" fill="#4285F4"/>
<path d="M12.214 22.9996C15.1068 22.9996 17.5353 22.0662 19.3092 20.4562L15.9282 17.8895C15.0235 18.5078 13.8092 18.9395 12.214 18.9395C9.38069 18.9395 6.97596 17.1079 6.11874 14.5762L5.99309 14.5866L2.68583 17.095L2.64258 17.2128C4.40446 20.6428 8.0235 22.9996 12.214 22.9996Z" fill="#34A853"/>
<path d="M6.12046 14.5775C5.89428 13.9241 5.76337 13.2241 5.76337 12.5008C5.76337 11.7774 5.89428 11.0774 6.10856 10.4241L6.10257 10.285L2.75386 7.73633L2.64429 7.7874C1.91814 9.21075 1.50146 10.8091 1.50146 12.5008C1.50146 14.1924 1.91814 15.7907 2.64429 17.2141L6.12046 14.5775Z" fill="#FBBC05"/>
<path d="M12.2141 6.05997C14.2259 6.05997 15.583 6.91163 16.3569 7.62335L19.3807 4.73C17.5236 3.03834 15.1069 2 12.2141 2C8.02353 2 4.40447 4.35665 2.64258 7.78662L6.10686 10.4233C6.97598 7.89166 9.38073 6.05997 12.2141 6.05997Z" fill="#EB4335"/>
</svg>
