<svg width="16" height="14" viewBox="0 0 16 14" fill="none" xmlns="http://www.w3.org/2000/svg">
<path d="M15.9999 6.99994C15.9999 7.26516 15.8946 7.51951 15.707 7.70705C15.5195 7.89458 15.2652 7.99994 14.9999 7.99994H3.40994L7.70994 12.2899C7.89824 12.4782 8.00403 12.7336 8.00403 12.9999C8.00403 13.2662 7.89824 13.5216 7.70994 13.7099C7.52164 13.8982 7.26624 14.004 6.99994 14.004C6.73364 14.004 6.47824 13.8982 6.28994 13.7099L0.289939 7.70994C0.196211 7.61698 0.121816 7.50638 0.0710478 7.38452C0.0202791 7.26266 -0.00585937 7.13195 -0.00585937 6.99994C-0.00585938 6.86793 0.0202791 6.73722 0.0710478 6.61536C0.121816 6.49351 0.196211 6.3829 0.289939 6.28994L6.28994 0.289941C6.38318 0.196703 6.49387 0.122742 6.61569 0.0722818C6.73751 0.0218215 6.86808 -0.00415039 6.99994 -0.00415039C7.1318 -0.00415039 7.26237 0.0218215 7.38419 0.0722818C7.50601 0.122742 7.6167 0.196703 7.70994 0.289941C7.80318 0.38318 7.87714 0.49387 7.9276 0.615692C7.97806 0.737514 8.00403 0.868082 8.00403 0.999941C8.00403 1.1318 7.97806 1.26237 7.9276 1.38419C7.87714 1.50601 7.80318 1.6167 7.70994 1.70994L3.40994 5.99994H14.9999C15.2652 5.99994 15.5195 6.1053 15.707 6.29283C15.8946 6.48037 15.9999 6.73472 15.9999 6.99994Z" fill="#008069"/>
</svg>
